<?xml version="1.0" encoding="UTF-8"?>
<!DOCTYPE svg PUBLIC "-//W3C//DTD SVG 1.1//EN" "http://www.w3.org/Graphics/SVG/1.1/DTD/svg11.dtd">
<svg xmlns="http://www.w3.org/2000/svg" version="1.1" width="28px" height="29px" style="shape-rendering:geometricPrecision; text-rendering:geometricPrecision; image-rendering:optimizeQuality; fill-rule:evenodd; clip-rule:evenodd" xmlns:xlink="http://www.w3.org/1999/xlink">
<g><path style="opacity:0.785" fill="#f2f2f2" d="M 18.5,-0.5 C 19.5,-0.5 20.5,-0.5 21.5,-0.5C 23.8084,3.778 25.8084,8.11133 27.5,12.5C 27.5,14.5 27.5,16.5 27.5,18.5C 25.6717,22.1456 23.3384,25.4789 20.5,28.5C 17.8333,28.5 15.1667,28.5 12.5,28.5C 10.0138,27.3376 7.51382,26.0042 5,24.5C 2.6512,20.2585 0.817868,15.9252 -0.5,11.5C -0.5,9.83333 -0.5,8.16667 -0.5,6.5C 6.73471,6.31399 13.068,3.98066 18.5,-0.5 Z M 21.5,7.5 C 25.9264,13.8018 25.2598,19.6351 19.5,25C 12.0928,26.2989 7.09277,23.4656 4.5,16.5C 7.41253,15.4585 10.0792,14.1251 12.5,12.5C 9.1039,10.8705 6.27056,11.5371 4,14.5C 3.18701,12.5643 2.68701,10.5643 2.5,8.5C 8.56545,8.6099 14.0654,6.94323 19,3.5C 20.5947,4.35574 21.428,5.68907 21.5,7.5 Z"/></g>
<g><path style="opacity:0.751" fill="#f2f2f2" d="M 21.5,7.5 C 21.5,8.5 21.5,9.5 21.5,10.5C 19.0706,10.8844 16.7373,11.551 14.5,12.5C 15.0897,8.68373 17.4231,7.01707 21.5,7.5 Z"/></g>
<g><path style="opacity:0.771" fill="#f2f2f2" d="M 18.5,17.5 C 21.9708,17.8994 22.3042,19.3994 19.5,22C 16.4397,24.229 13.7731,23.8957 11.5,21C 11.8333,20.5 12.1667,20 12.5,19.5C 15.2321,21.0337 17.2321,20.3671 18.5,17.5 Z"/></g>
</svg>
