<?xml version="1.0" encoding="UTF-8"?>
<!DOCTYPE svg PUBLIC "-//W3C//DTD SVG 1.1//EN" "http://www.w3.org/Graphics/SVG/1.1/DTD/svg11.dtd">
<svg xmlns="http://www.w3.org/2000/svg" version="1.1" width="26px" height="30px" style="shape-rendering:geometricPrecision; text-rendering:geometricPrecision; image-rendering:optimizeQuality; fill-rule:evenodd; clip-rule:evenodd" xmlns:xlink="http://www.w3.org/1999/xlink">
<g><path style="opacity:0.96" fill="#f1f1f1" d="M 9.5,-0.5 C 11.5,-0.5 13.5,-0.5 15.5,-0.5C 18.4148,2.95866 21.7482,5.95866 25.5,8.5C 25.5,14.8333 25.5,21.1667 25.5,27.5C 24.0048,27.9887 22.6715,28.6554 21.5,29.5C 19.8333,29.5 18.1667,29.5 16.5,29.5C 16.6653,25.8183 16.4986,22.1516 16,18.5C 13.6667,17.1667 11.3333,17.1667 9,18.5C 8.50137,22.1516 8.3347,25.8183 8.5,29.5C 6.83333,29.5 5.16667,29.5 3.5,29.5C 2.32855,28.6554 0.995216,27.9887 -0.5,27.5C -0.5,21.1667 -0.5,14.8333 -0.5,8.5C 3.25184,5.95866 6.58518,2.95866 9.5,-0.5 Z"/></g>
<g><path style="opacity:0.783" fill="#f1f1f1" d="M 14.5,29.5 C 12.8333,29.5 11.1667,29.5 9.5,29.5C 9.33499,26.1501 9.50166,22.8168 10,19.5C 11.3561,18.6198 12.8561,18.2865 14.5,18.5C 14.5,22.1667 14.5,25.8333 14.5,29.5 Z"/></g>
</svg>
