<?xml version="1.0" encoding="UTF-8"?>
<!DOCTYPE svg PUBLIC "-//W3C//DTD SVG 1.1//EN" "http://www.w3.org/Graphics/SVG/1.1/DTD/svg11.dtd">
<svg xmlns="http://www.w3.org/2000/svg" version="1.1" width="30px" height="26px" style="shape-rendering:geometricPrecision; text-rendering:geometricPrecision; image-rendering:optimizeQuality; fill-rule:evenodd; clip-rule:evenodd" xmlns:xlink="http://www.w3.org/1999/xlink">
<g><path style="opacity:0.818" fill="#f1f1f1" d="M 11.5,-0.5 C 14.8333,-0.5 18.1667,-0.5 21.5,-0.5C 25.1667,1.16667 27.8333,3.83333 29.5,7.5C 29.5,10.8333 29.5,14.1667 29.5,17.5C 27.0967,20.907 24.0967,23.5737 20.5,25.5C 17.8333,25.5 15.1667,25.5 12.5,25.5C 11.1516,24.3994 9.65161,23.3994 8,22.5C 7.38767,20.7627 8.05433,19.7627 10,19.5C 21.902,23.9235 26.902,19.9235 25,7.5C 20.8836,2.26023 16.0502,1.4269 10.5,5C 8.54937,6.73423 7.54937,8.9009 7.5,11.5C 8.97782,11.238 10.3112,11.5713 11.5,12.5C 9.80989,15.0237 7.64323,17.0237 5,18.5C 3.29617,16.6266 1.46283,14.9599 -0.5,13.5C -0.5,12.8333 -0.5,12.1667 -0.5,11.5C 0.833333,11.5 2.16667,11.5 3.5,11.5C 4.17514,6.16059 6.84181,2.16059 11.5,-0.5 Z"/></g>
<g><path style="opacity:0.747" fill="#f2f2f2" d="M 14.5,6.5 C 15.5,6.5 16.5,6.5 17.5,6.5C 16.5727,10.4454 17.906,13.1121 21.5,14.5C 22.3857,15.325 22.719,16.325 22.5,17.5C 15.7501,16.9365 13.0834,13.2699 14.5,6.5 Z"/></g>
</svg>
