<?xml version="1.0" encoding="UTF-8"?>
<!DOCTYPE svg PUBLIC "-//W3C//DTD SVG 1.1//EN" "http://www.w3.org/Graphics/SVG/1.1/DTD/svg11.dtd">
<svg xmlns="http://www.w3.org/2000/svg" version="1.1" width="28px" height="26px" style="shape-rendering:geometricPrecision; text-rendering:geometricPrecision; image-rendering:optimizeQuality; fill-rule:evenodd; clip-rule:evenodd" xmlns:xlink="http://www.w3.org/1999/xlink">
<g><path style="opacity:0.973" fill="#f0f0f0" d="M -0.5,-0.5 C 0.5,-0.5 1.5,-0.5 2.5,-0.5C 2.5,8.16667 2.5,16.8333 2.5,25.5C 1.5,25.5 0.5,25.5 -0.5,25.5C -0.5,16.8333 -0.5,8.16667 -0.5,-0.5 Z"/></g>
<g><path style="opacity:0.973" fill="#f0f0f0" d="M 24.5,-0.5 C 25.5,-0.5 26.5,-0.5 27.5,-0.5C 27.5,8.16667 27.5,16.8333 27.5,25.5C 26.5,25.5 25.5,25.5 24.5,25.5C 24.5,16.8333 24.5,8.16667 24.5,-0.5 Z"/></g>
<g><path style="opacity:0.9" fill="#f1f1f1" d="M 6.5,0.5 C 11.1785,0.334181 15.8452,0.500847 20.5,1C 21.6168,4.07307 21.7835,7.23973 21,10.5C 16.2523,11.6349 11.419,11.8015 6.5,11C 5.20348,7.50105 5.20348,4.00105 6.5,0.5 Z M 9.5,2.5 C 12.1873,2.33591 14.854,2.50258 17.5,3C 20.1667,5 20.1667,7 17.5,9C 14.8333,9.66667 12.1667,9.66667 9.5,9C 6.93874,6.8441 6.93874,4.67743 9.5,2.5 Z"/></g>
<g><path style="opacity:0.9" fill="#f1f1f1" d="M 20.5,25.5 C 15.8333,25.5 11.1667,25.5 6.5,25.5C 5.42002,22.2569 5.25335,18.9236 6,15.5C 11,14.1667 16,14.1667 21,15.5C 21.7466,18.9236 21.58,22.2569 20.5,25.5 Z M 9.5,16.5 C 12.1873,16.3359 14.854,16.5026 17.5,17C 20.1667,19 20.1667,21 17.5,23C 14.8333,23.6667 12.1667,23.6667 9.5,23C 6.93874,20.8441 6.93874,18.6774 9.5,16.5 Z"/></g>
</svg>
