<?xml version="1.0" encoding="UTF-8"?>
<!DOCTYPE svg PUBLIC "-//W3C//DTD SVG 1.1//EN" "http://www.w3.org/Graphics/SVG/1.1/DTD/svg11.dtd">
<svg xmlns="http://www.w3.org/2000/svg" version="1.1" width="30px" height="26px" style="shape-rendering:geometricPrecision; text-rendering:geometricPrecision; image-rendering:optimizeQuality; fill-rule:evenodd; clip-rule:evenodd" xmlns:xlink="http://www.w3.org/1999/xlink">
<g><path style="opacity:0.852" fill="#f1f1f1" d="M -0.5,12.5 C -0.5,12.1667 -0.5,11.8333 -0.5,11.5C 1.67436,2.16895 7.34102,-0.997717 16.5,2C 18.6667,2.83333 20.1667,4.33333 21,6.5C 22.537,9.80701 22.8704,13.1403 22,16.5C 24.4773,17.9854 26.644,19.8188 28.5,22C 28.3865,23.2798 27.7199,24.1131 26.5,24.5C 23.864,23.0295 21.364,21.3628 19,19.5C 14.397,23.5418 9.56366,24.0418 4.5,21C 1.89156,18.6022 0.224897,15.7688 -0.5,12.5 Z M 9.5,4.5 C 17.537,5.24494 19.8703,9.24494 16.5,16.5C 10.3973,20.8006 6.06393,19.3006 3.5,12C 4.27406,8.40461 6.27406,5.90461 9.5,4.5 Z"/></g>
</svg>
