<?xml version="1.0" encoding="UTF-8"?>
<!DOCTYPE svg PUBLIC "-//W3C//DTD SVG 1.1//EN" "http://www.w3.org/Graphics/SVG/1.1/DTD/svg11.dtd">
<svg xmlns="http://www.w3.org/2000/svg" version="1.1" width="27px" height="28px" style="shape-rendering:geometricPrecision; text-rendering:geometricPrecision; image-rendering:optimizeQuality; fill-rule:evenodd; clip-rule:evenodd" xmlns:xlink="http://www.w3.org/1999/xlink">
<g><path style="opacity:0.752" fill="#f1f1f1" d="M 0.5,-0.5 C 8.5,-0.5 16.5,-0.5 24.5,-0.5C 24.8333,0.5 25.5,1.16667 26.5,1.5C 26.5,9.16667 26.5,16.8333 26.5,24.5C 25.1667,25.1667 24.1667,26.1667 23.5,27.5C 16.5,27.5 9.5,27.5 2.5,27.5C 1.70951,26.5987 0.709515,25.9321 -0.5,25.5C -0.5,17.5 -0.5,9.5 -0.5,1.5C 0.338246,1.15829 0.67158,0.491622 0.5,-0.5 Z M 3.5,1.5 C 5.04814,1.82124 5.71481,2.82124 5.5,4.5C 1.36012,5.0443 0.693457,4.0443 3.5,1.5 Z M 7.5,1.5 C 8.83333,1.5 10.1667,1.5 11.5,1.5C 11.5,2.5 11.5,3.5 11.5,4.5C 10.1667,4.5 8.83333,4.5 7.5,4.5C 7.5,3.5 7.5,2.5 7.5,1.5 Z M 14.5,1.5 C 15.5,1.5 16.5,1.5 17.5,1.5C 17.5,2.5 17.5,3.5 17.5,4.5C 16.5,4.5 15.5,4.5 14.5,4.5C 14.5,3.5 14.5,2.5 14.5,1.5 Z M 20.5,1.5 C 24.31,2.75419 24.31,3.75419 20.5,4.5C 20.5,3.5 20.5,2.5 20.5,1.5 Z M 1.5,6.5 C 9.16667,6.5 16.8333,6.5 24.5,6.5C 24.5,10.8333 24.5,15.1667 24.5,19.5C 19.8215,19.6658 15.1548,19.4992 10.5,19C 13.6192,17.4577 16.2859,15.4577 18.5,13C 15.6187,9.6238 11.952,7.79047 7.5,7.5C 7.20653,11.4367 7.53986,15.27 8.5,19C 6.19018,19.4966 3.85684,19.6633 1.5,19.5C 1.5,15.1667 1.5,10.8333 1.5,6.5 Z M 10.5,10.5 C 15.3644,11.964 15.531,13.6307 11,15.5C 10.5065,13.8659 10.3398,12.1992 10.5,10.5 Z M 1.5,23.5 C 2.70823,22.218 4.04156,22.218 5.5,23.5C 4.19165,24.6256 2.85832,24.6256 1.5,23.5 Z M 7.5,22.5 C 8.97782,22.238 10.3112,22.5713 11.5,23.5C 10.8333,23.8333 10.1667,24.1667 9.5,24.5C 8.28665,24.2528 7.61998,23.5862 7.5,22.5 Z M 14.5,22.5 C 15.675,22.281 16.675,22.6143 17.5,23.5C 15.9483,24.7979 14.9483,24.4646 14.5,22.5 Z M 20.5,22.5 C 21.675,22.281 22.675,22.6143 23.5,23.5C 21.9483,24.7979 20.9483,24.4646 20.5,22.5 Z"/></g>
</svg>
